<?xml version="1.0" ?>
<!DOCTYPE svg  PUBLIC '-//W3C//DTD SVG 1.1//EN'  'http://www.w3.org/Graphics/SVG/1.1/DTD/svg11.dtd'>
<!-- Uploaded to: SVG Repo, www.svgrepo.com, Generator: SVG Repo Mixer Tools -->
<svg width="800px" height="800px" viewBox="0 0 24 24" enable-background="new 0 0 24 24" version="1.1" xml:space="preserve" xmlns="http://www.w3.org/2000/svg" xmlns:xlink="http://www.w3.org/1999/xlink">
<g id="Layer_27"/>
<g id="Layer_2"/>
<g id="Layer_3"/>
<g id="Layer_4"/>
<g id="Layer_5"/>
<g id="Layer_6"/>
<g id="Layer_7"/>
<g id="Layer_8"/>
<g id="Layer_9"/>
<g id="Layer_10"/>
<g id="Layer_11"/>
<g id="Layer_12"/>
<g id="Layer_13"/>
<g id="Layer_14"/>
<g id="Layer_15"/>
<g id="Layer_16">
<g id="Layer_17"/>
</g>
<g id="Layer_18"/>
<g id="Layer_19">
<path d="M18.98,3.21L17.1,12l-0.86,4L16,17.11V18c0,2.21-1.79,4-4,4s-4-1.79-4-4v-0.89L7.76,16L6.9,12L5.02,3.21   C4.95,2.86,5.07,2.49,5.33,2.25c0.27-0.23,0.65-0.31,0.99-0.2L11,3.62V7c0,0.55,0.45,1,1,1s1-0.45,1-1V3.62l4.68-1.57   c0.34-0.11,0.72-0.04,0.99,0.2C18.93,2.49,19.05,2.86,18.98,3.21z" fill="#FFBF42"/>
<g>
<path d="M16,17v1c0,2.21-1.79,4-4,4s-4-1.79-4-4v-1c0-0.55,0.45-1,1-1h6C15.55,16,16,16.45,16,17z" fill="#4558A3"/>
</g>
<g>
<polygon fill="#85C756" points="17.1,12 16.24,16 16,17.11 16,18 8,18 8,17.11 7.76,16 6.9,12   "/>
</g>
</g>
<g id="Layer_20"/>
<g id="Layer_21"/>
<g id="Layer_22"/>
<g id="Layer_23"/>
<g id="Layer_24"/>
<g id="Layer_25"/>
<g id="Layer_26"/>
</svg>