<!--?xml version="1.0" standalone="no"?-->
              <svg id="sw-js-blob-svg" viewBox="0 0 100 100" xmlns="http://www.w3.org/2000/svg" version="1.1">
                    <defs> 
                        <linearGradient id="sw-gradient" x1="0" x2="1" y1="1" y2="0">
                            <stop id="stop1" stop-color="rgba(248, 117, 55, 1)" offset="0%"></stop>
                            <stop id="stop2" stop-color="rgba(251, 168, 31, 1)" offset="100%"></stop>
                        </linearGradient>
                    </defs>
                <path fill="none" d="M21.4,-27.1C27.1,-20.8,30.4,-13.4,31.3,-5.9C32.1,1.5,30.3,9,27.5,17.8C24.7,26.6,20.9,36.6,14.3,38.7C7.8,40.8,-1.4,35,-10.8,31C-20.2,27,-29.8,24.9,-34.5,18.9C-39.1,12.9,-38.8,3.1,-37.4,-6.9C-36.1,-16.9,-33.7,-27.1,-27.2,-33.2C-20.8,-39.3,-10.4,-41.3,-1.3,-39.8C7.9,-38.3,15.8,-33.3,21.4,-27.1Z" width="100%" height="100%" transform="translate(50 50)" stroke-width="1" style="transition: all 0.3s ease 0s;" stroke="url(#sw-gradient)"></path>
              </svg>