<!--?xml version="1.0" standalone="no"?-->
              <svg id="sw-js-blob-svg" viewBox="9.8 22.02 71.29 61.05" xmlns="http://www.w3.org/2000/svg" version="1.1">
                    <defs> 
                        <linearGradient id="sw-gradient" x1="0" x2="1" y1="1" y2="0">
                            <stop id="stop1" stop-color="#F35409" offset="0%"></stop>
                            <stop id="stop2" stop-color="rgba(251, 168, 31, 1)" offset="100%"></stop>
                        </linearGradient>
                    </defs>
                <path fill="url(#sw-gradient)" d="M20.6,-25.2C24.4,-21.3,23.6,-12.7,25.6,-4.1C27.7,4.5,32.5,13,30.7,19.3C28.9,25.5,20.6,29.5,12.3,31.5C4,33.6,-4.1,33.7,-11.3,31.1C-18.5,28.5,-24.7,23.2,-30.6,16.1C-36.4,9.1,-41.9,0.4,-39.7,-6.1C-37.4,-12.5,-27.5,-16.7,-19.6,-19.9C-11.7,-23,-5.8,-25.2,1.3,-26.7C8.4,-28.2,16.8,-29.1,20.6,-25.2Z" width="100%" height="100%" transform="translate(50 50)" stroke-width="0" style="transition: all 0.3s ease 0s;" stroke="url(#sw-gradient)"></path>
              </svg>