<?xml version="1.0" encoding="iso-8859-1"?>
<!-- Uploaded to: SVG Repo, www.svgrepo.com, Generator: SVG Repo Mixer Tools -->
<svg height="800px" width="800px" version="1.1" id="Layer_1" xmlns="http://www.w3.org/2000/svg" xmlns:xlink="http://www.w3.org/1999/xlink" 
	 viewBox="0 0 512 512" xml:space="preserve">
<circle style="fill:#31BAFD;" cx="256" cy="256" r="256"/>
<path style="fill:#2B9ED8;" d="M508.299,299.518l-77.527-77.527l-51.145,7.994l-63.597-63.597l-118.648-5.208l-23.312,29.294
	l37.354,37.354L112.988,256l-27.655-13.512l23.493,23.492l-3.998,18.465l99.002,99.002l-39.126,10.457l-11.636,12.938l-6.415,11.188
	l93.465,93.465C245.374,511.817,250.665,512,256,512C382.548,512,487.634,420.173,508.299,299.518z"/>
<path style="fill:#324A5E;" d="M316.03,255.116c0,0-33.964-26.824-86.218,0s-47.028,48.421-93.012,34.487l24.036,17.244v34.487
	c0,0,8.013-28.391,17.244-34.487C192.448,297.358,274.749,321.651,316.03,255.116z"/>
<path style="fill:#2B3B4E;" d="M316.03,255.116c0,0-33.964-26.824-86.218,0c-0.159,0.081-0.302,0.162-0.46,0.243l9.875,46.716
	C266.176,298.348,295.953,287.475,316.03,255.116z"/>
<circle style="fill:#B5F1F4;" cx="290.168" cy="260.344" r="5.748"/>
<path style="fill:#324A5E;" d="M230.697,214.518c0,0-27.548-21.756-69.927,0s-38.141,39.272-75.436,27.97l19.496,13.986v27.97
	c0,0,6.499-23.026,13.986-27.97C130.465,248.779,197.217,268.481,230.697,214.518z"/>
<path style="fill:#2B3B4E;" d="M230.697,214.518c0,0-27.548-21.756-69.927,0c-2.25,1.155-4.343,2.295-6.344,3.422l18.52,33.954
	C193.548,248.286,215.535,238.956,230.697,214.518z"/>
<circle style="fill:#B5F1F4;" cx="209.713" cy="218.746" r="4.661"/>
<path style="fill:#324A5E;" d="M288.615,393.943c0,0-18.744-29.679-65.946-23.255s-49.031,24.352-80.444,1.291l13.734,19.673
	l-9.302,26.379c0,0,13.786-19.554,22.492-21.728C182.694,392.921,239.094,433.7,288.615,393.943z"/>
<path style="fill:#2B3B4E;" d="M288.615,393.943c0,0-18.492-29.236-64.952-23.369l1.493,39.931
	C244.97,413.217,267.421,410.958,288.615,393.943z"/>
<circle style="fill:#B5F1F4;" cx="267.412" cy="390.965" r="4.661"/>
<path style="fill:#324A5E;" d="M316.03,166.388c0,0-18.744-29.679-65.946-23.255c-47.202,6.423-49.031,24.352-80.444,1.291
	l13.734,19.673l-9.302,26.379c0,0,13.786-19.554,22.492-21.728C210.11,165.366,266.509,206.145,316.03,166.388z"/>
<path style="fill:#2B3B4E;" d="M316.03,166.388c0,0-18.339-28.981-64.362-23.436l3.413,40.315
	C274.27,185.446,295.727,182.687,316.03,166.388z"/>
<circle style="fill:#B5F1F4;" cx="294.84" cy="163.409" r="4.661"/>
<path style="fill:#324A5E;" d="M398.972,340.552c0,0-15.019-23.78-52.841-18.634c-37.823,5.146-39.288,19.513-64.459,1.034
	l11.005,15.763l-7.454,21.137c0,0,11.047-15.669,18.022-17.41C314.101,339.734,359.291,372.408,398.972,340.552z"/>
<path style="fill:#2B3B4E;" d="M398.972,340.552c0,0-14.943-23.645-52.539-18.668l0.572,31.782
	C363.153,356.078,381.59,354.507,398.972,340.552z"/>
<circle style="fill:#B5F1F4;" cx="381.983" cy="338.161" r="3.736"/>
<path style="fill:#324A5E;" d="M430.771,221.991c0,0-14.357-24.186-52.307-20.087s-39.812,18.42-64.462-0.748l10.566,16.062
	l-8.035,20.923c0,0,11.476-15.357,18.496-16.905C345.955,218.826,390.227,252.738,430.771,221.991z"/>
<path style="fill:#2B3B4E;" d="M430.771,221.991c0,0-14.357-24.186-52.307-20.087c-0.584,0.062-1.133,0.136-1.7,0.203l-1.358,30.958
	C392.17,236.603,411.874,236.322,430.771,221.991z"/>
<circle style="fill:#B5F1F4;" cx="413.858" cy="219.126" r="3.736"/>
</svg>